<?xml version="1.0" encoding="utf-8" standalone="no"?>
<!DOCTYPE svg PUBLIC "-//W3C//DTD SVG 1.1//EN"
  "http://www.w3.org/Graphics/SVG/1.1/DTD/svg11.dtd">
<!-- Created with matplotlib (http://matplotlib.org/) -->
<svg height="197pt" version="1.1" viewBox="0 0 151 197" width="151pt" xmlns="http://www.w3.org/2000/svg" xmlns:xlink="http://www.w3.org/1999/xlink">
 <defs>
  <style type="text/css">
*{stroke-linecap:butt;stroke-linejoin:round;}
  </style>
 </defs>
 <g id="figure_1">
  <g id="patch_1">
   <path d="
M0 197.545
L151.004 197.545
L151.004 0
L0 0
z
" style="fill:#ffffff;"/>
  </g>
  <g id="axes_1">
   <g id="patch_2">
    <path clip-path="url(#pf5f7f1693f)" d="
M128.651 163.601
L124.466 165.341
L124.466 163.607
L17.0515 163.607
L17.0515 163.595
L124.466 163.595
L124.466 161.86
z
" style="stroke:#000000;stroke-linejoin:miter;stroke-width:2;"/>
   </g>
   <g id="patch_3">
    <path clip-path="url(#pf5f7f1693f)" d="
M35.6515 24.3733
L37.279 30.4645
L35.6561 30.4645
L35.6561 186.805
L35.6468 186.805
L35.6468 30.4645
L34.024 30.4645
z
" style="stroke:#000000;stroke-linejoin:miter;stroke-width:1.5;"/>
   </g>
   <g id="line2d_1">
    <defs>
     <path d="
M0 1.5
C0.397805 1.5 0.77937 1.34195 1.06066 1.06066
C1.34195 0.77937 1.5 0.397805 1.5 0
C1.5 -0.397805 1.34195 -0.77937 1.06066 -1.06066
C0.77937 -1.34195 0.397805 -1.5 0 -1.5
C-0.397805 -1.5 -0.77937 -1.34195 -1.06066 -1.06066
C-1.34195 -0.77937 -1.5 -0.397805 -1.5 0
C-1.5 0.397805 -1.34195 0.77937 -1.06066 1.06066
C-0.77937 1.34195 -0.397805 1.5 0 1.5
z
" id="m66763a63fb" style="stroke:#000000;stroke-width:0.5;"/>
    </defs>
    <g clip-path="url(#pf5f7f1693f)">
     <use style="stroke:#000000;stroke-width:0.5;" x="63.5514796807" xlink:href="#m66763a63fb" y="175.203042794"/>
     <use style="stroke:#000000;stroke-width:0.5;" x="72.8514796807" xlink:href="#m66763a63fb" y="145.037099936"/>
     <use style="stroke:#000000;stroke-width:0.5;" x="82.1514796807" xlink:href="#m66763a63fb" y="149.678014222"/>
     <use style="stroke:#000000;stroke-width:0.5;" x="91.4514796807" xlink:href="#m66763a63fb" y="133.434814222"/>
     <use style="stroke:#000000;stroke-width:0.5;" x="100.751479681" xlink:href="#m66763a63fb" y="130.534242794"/>
     <use style="stroke:#000000;stroke-width:0.5;" x="114.701479681" xlink:href="#m66763a63fb" y="92.8268142222"/>
    </g>
   </g>
   <g id="line2d_2">
    <path clip-path="url(#pf5f7f1693f)" d="
M61.2265 182.526
L62.4127 177.82
L63.5989 173.496
L64.7852 169.536
L65.9714 165.922
L67.1576 162.635
L68.3438 159.659
L69.5301 156.974
L70.7163 154.562
L71.9025 152.407
L73.0887 150.489
L74.2749 148.791
L75.4612 147.294
L76.6474 145.981
L77.8336 144.834
L79.0198 143.834
L80.2061 142.964
L81.3923 142.205
L82.5785 141.54
L83.7647 140.951
L84.951 140.419
L86.1372 139.926
L87.3234 139.454
L88.5096 138.987
L89.6959 138.504
L90.8821 137.989
L92.0683 137.423
L93.2545 136.789
L94.4408 136.068
L95.627 135.242
L96.8132 134.293
L97.9994 133.204
L99.1857 131.956
L100.372 130.531
L101.558 128.911
L102.744 127.078
L103.931 125.015
L105.117 122.703
L106.303 120.123
L107.489 117.259
L108.675 114.092
L109.862 110.604
L111.048 106.777
L112.234 102.593
L113.42 98.0339
L114.607 93.0818
L115.793 87.7186
L116.979 81.9263
L118.165 75.6869
L119.351 68.9824" style="fill:none;stroke:#0000ff;stroke-linecap:square;"/>
   </g>
   <g id="line2d_3">
    <path clip-path="url(#pf5f7f1693f)" d="
M54.2515 173.149
L55.5801 171.529
L56.9086 169.909
L58.2372 168.29
L59.5658 166.67
L60.8943 165.05
L62.2229 163.43
L63.5515 161.81
L64.8801 160.19
L66.2086 158.57
L67.5372 156.95
L68.8658 155.331
L70.1943 153.711
L71.5229 152.091
L72.8515 150.471
L74.1801 148.851
L75.5086 147.231
L76.8372 145.611
L78.1658 143.991
L79.4943 142.371
L80.8229 140.752
L82.1515 139.132
L83.4801 137.512
L84.8086 135.892
L86.1372 134.272
L87.4658 132.652
L88.7943 131.032
L90.1229 129.412
L91.4515 127.793
L92.7801 126.173
L94.1086 124.553
L95.4372 122.933
L96.7658 121.313
L98.0943 119.693
L99.4229 118.073
L100.751 116.453
L102.08 114.834
L103.409 113.214
L104.737 111.594
L106.066 109.974
L107.394 108.354
L108.723 106.734
L110.051 105.114
L111.38 103.494
L112.709 101.875
L114.037 100.255
L115.366 98.6348
L116.694 97.0149
L118.023 95.3951
L119.351 93.7752" style="fill:none;stroke:#ff0000;stroke-linecap:square;"/>
   </g>
  </g>
 </g>
 <defs>
  <clipPath id="pf5f7f1693f">
   <rect height="162.432" width="111.6" x="26.3514796807" y="12.7710427936"/>
  </clipPath>
 </defs>
</svg>
